<svg id="Layer_1" data-name="Layer 1" xmlns="http://www.w3.org/2000/svg" viewBox="0 0 534.61 149.16"><path d="M28.8,50.34c0,3.41,3.21,5.71,19.72,5.71,15.42,0,17.72-1,17.72-3.61,0-3-2.3-3.4-18.72-3.9C15.89,47.54,3.78,42.33,3.78,26,3.78,10.6,18.89,4,46.52,4c27.33,0,42.74,6.6,42.74,24.52h-26c0-3.7-6-4.5-18.72-4.5-12.21,0-14.71.6-14.71,3.3s2.5,2.6,17.71,3.2c27.63,1.1,44.75,3,44.75,21.32,0,19.32-16,24.23-44.75,24.23S2.78,71.16,2.78,50.34Z" transform="translate(-2.78 -4)"/><path d="M177.35,27h-30V75.07h-26V27h-30V5h86.09Z" transform="translate(-2.78 -4)"/><path d="M223.39,76.07c-30.83,0-44-11.72-44-36.14V5h26V39.93c0,7.51,2.7,14.12,18,14.12s18-6.71,18-14.12V5h26V39.93C267.43,64.26,254.12,76.07,223.39,76.07Z" transform="translate(-2.78 -4)"/><path d="M355.32,40c0,23.82-15.92,35-32.84,35H270.43V5h52.05C339.4,5,355.32,16.21,355.32,40Zm-26,0c0-13-9.21-13-14.81-13h-18V53h18C320.08,53,329.29,53,329.29,40Z" transform="translate(-2.78 -4)"/><path d="M383.34,75.07h-26V5h26Z" transform="translate(-2.78 -4)"/><path d="M384.34,39.93c0-24.32,13.21-35.93,44-35.93s44.05,11.71,44.05,35.93-13.32,36.14-44.05,36.14S384.34,64.35,384.34,39.93Zm62.06,0c0-7.31-2.6-13.91-18-13.91s-18,6.5-18,13.91,2.71,14.12,18,14.12S446.4,47.34,446.4,39.93Z" transform="translate(-2.78 -4)"/><path d="M67,139.54H37.21l-4.8,12.61H3.78l29-70.06H71.45l29,70.06H71.85Zm-6.81-18-8.1-21.42L44,121.52Z" transform="translate(-2.78 -4)"/><path d="M134.8,114h45.45v38.13h-15L163.33,142c-5.9,6.91-15.11,11.11-29.83,11.11-25.82,0-41-11.71-41-36.13s15.22-35.94,44.05-35.94c28,0,42.64,9.81,43.74,28.93H153.62c-1-3.6-6.1-6.9-17.11-6.9-15.42,0-18,6.5-18,14.91s2.7,16.12,18,16.12c10,0,16.11-1.41,17.11-6.11H134.8Z" transform="translate(-2.78 -4)"/><path d="M226.29,153.15c-30.83,0-44-11.71-44-36.13V82.09h26V117c0,7.51,2.71,14.11,18,14.11s18-6.7,18-14.11V82.09h26V117C270.33,141.34,257,153.15,226.29,153.15Z" transform="translate(-2.78 -4)"/><path d="M299.36,102.1v6.51h48.05v17H299.36v6.5h48.05v20H273.33V82.09h74.08v20Z" transform="translate(-2.78 -4)"/><path d="M439.69,82.09v70.06h-34l-30.23-41.34v41.34h-26V82.09h34l30.23,41.34V82.09Z" transform="translate(-2.78 -4)"/><path d="M504,139.54H474.12l-4.8,12.61H440.69l29-70.06h38.64l29,70.06H508.76Zm-6.8-18L489,100.1l-8.11,21.42Z" transform="translate(-2.78 -4)"/></svg>